<svg width="21" height="29" viewBox="0 0 21 29" fill="none" xmlns="http://www.w3.org/2000/svg">
<path d="M16.5443 7.8438H15.7109V6.17725H14.0443V7.8438H7.3776V6.17725H5.71094V7.8438H4.8776C3.9526 7.8438 3.21927 8.59375 3.21927 9.51035L3.21094 21.1762C3.21094 22.0928 3.9526 22.8428 4.8776 22.8428H16.5443C17.4609 22.8428 18.2109 22.0928 18.2109 21.1762V9.51035C18.2109 8.59375 17.4609 7.8438 16.5443 7.8438ZM16.5443 21.1762H4.8776V12.8435H16.5443V21.1762ZM8.21094 16.1766H6.54427V14.51H8.21094V16.1766ZM11.5443 16.1766H9.8776V14.51H11.5443V16.1766ZM14.8776 16.1766H13.2109V14.51H14.8776V16.1766ZM8.21094 19.5097H6.54427V17.8431H8.21094V19.5097ZM11.5443 19.5097H9.8776V17.8431H11.5443V19.5097ZM14.8776 19.5097H13.2109V17.8431H14.8776V19.5097Z" fill="#04243D"/>
</svg>
