<svg width="48" height="37" viewBox="0 0 48 37" fill="none" xmlns="http://www.w3.org/2000/svg">
<path d="M44 0.22998H4C1.8 0.22998 0 2.02998 0 4.22998V32.23C0 34.43 1.8 36.23 4 36.23H44C46.2 36.23 47.98 34.43 47.98 32.23L48 4.22998C48 2.02998 46.2 0.22998 44 0.22998ZM16 6.22998C19.32 6.22998 22 8.90998 22 12.23C22 15.55 19.32 18.23 16 18.23C12.68 18.23 10 15.55 10 12.23C10 8.90998 12.68 6.22998 16 6.22998ZM28 30.23H4V28.23C4 24.23 12 22.03 16 22.03C20 22.03 28 24.23 28 28.23V30.23ZM35.7 22.23H38.98L42 26.23L38.02 30.21C35.4 28.25 33.46 25.45 32.56 22.23C32.2 20.95 32 19.61 32 18.23C32 16.85 32.2 15.51 32.56 14.23C33.46 10.99 35.4 8.20998 38.02 6.24998L42 10.23L38.98 14.23H35.7C35.26 15.49 35 16.83 35 18.23C35 19.63 35.26 20.97 35.7 22.23Z" fill="white"/>
</svg>
