<svg width="33" height="36" viewBox="0 0 33 36" fill="none" xmlns="http://www.w3.org/2000/svg">
<g clip-path="url(#clip0_218_1812)">
<path fill-rule="evenodd" clip-rule="evenodd" d="M11.4488 22.5965L13.9924 30.0749L15.272 25.6359L14.6452 24.9492C14.3632 24.5366 14.3005 24.1763 14.4572 23.8655C14.7967 23.1945 15.4992 23.3198 16.1547 23.3198C16.8415 23.3198 17.6929 23.1892 17.907 24.0509C17.9801 24.3382 17.8887 24.641 17.6876 24.9492L17.0609 25.6359L18.3405 30.0749L20.6438 22.5965C22.3047 24.0901 27.2222 24.3904 29.0528 25.4113C29.6326 25.7351 30.1549 26.1451 30.5753 26.6986C31.2125 27.542 31.6043 28.6413 31.7113 30.0383L32.0926 32.4745C31.9986 33.4615 31.4397 34.0308 30.3351 34.1169H1.75753C0.652873 34.0334 0.0940137 33.4641 0 32.4745L0.381278 30.0383C0.488349 28.6413 0.880072 27.542 1.51728 26.6986C1.93773 26.1425 2.46002 25.7325 3.03978 25.4113C4.87043 24.3904 9.78787 24.0901 11.4488 22.5965ZM10.2971 11.8934C9.98112 11.9064 9.74347 11.9717 9.58156 12.0814C9.48755 12.1441 9.41965 12.225 9.37525 12.319C9.32563 12.4234 9.30474 12.5514 9.30735 12.7002C9.32041 13.1337 9.54761 13.6977 9.98373 14.3479L9.98895 14.3583L11.4096 16.6196C11.9789 17.5256 12.5769 18.45 13.3186 19.1289C14.0315 19.7817 14.8986 20.223 16.045 20.2256C17.2855 20.2282 18.1943 19.7686 18.9281 19.0793C19.6933 18.3612 20.2991 17.3794 20.8945 16.3976L22.4954 13.7604C22.7931 13.0788 22.9028 12.6245 22.8349 12.3556C22.7931 12.1963 22.6181 12.1179 22.3204 12.1049C22.2577 12.1023 22.1925 12.1023 22.1246 12.1023C22.054 12.1049 21.9783 12.1101 21.9 12.1153C21.8582 12.1179 21.8164 12.1153 21.7772 12.1075C21.6336 12.1153 21.4873 12.1049 21.3385 12.084L21.8869 9.65823C18.9594 9.62167 16.9564 9.1125 14.5878 7.59803C13.8096 7.10191 13.5745 6.53267 12.7963 6.58751C12.2087 6.69979 11.7151 6.96351 11.3208 7.38652C10.9448 7.79125 10.6601 8.34482 10.4747 9.05244L10.7855 11.9117C10.6225 11.9229 10.4588 11.9168 10.2971 11.8934ZM22.8688 11.3842C23.2632 11.5043 23.5165 11.755 23.6183 12.1597C23.7332 12.6088 23.6079 13.2381 23.2292 14.0998L23.2057 14.1468L21.5866 16.8154C20.9624 17.8442 20.3278 18.873 19.4817 19.6668C18.6069 20.4867 17.5257 21.0324 16.0502 21.0298C14.6714 21.0272 13.6346 20.4998 12.7832 19.7216C11.9606 18.9696 11.3313 17.9983 10.7332 17.0478L9.31258 14.7892C8.79289 14.0136 8.52391 13.306 8.50563 12.7237C8.49779 12.4496 8.5448 12.2015 8.64404 11.9848C8.75111 11.755 8.91302 11.5644 9.13238 11.4181C9.23423 11.3503 9.34914 11.2902 9.4771 11.2432C9.3857 10.0186 9.34914 8.47276 9.4092 7.18024C9.44054 6.87473 9.49799 6.56662 9.58417 6.2585C9.94717 4.96076 10.8586 3.91629 11.9867 3.19823C12.3837 2.94494 12.8198 2.73605 13.2794 2.56894C16.0084 1.5767 19.628 2.11721 21.5657 4.21135C22.3544 5.0652 22.8505 6.19844 22.9576 7.69464L22.8688 11.3842Z" fill="#04435E"/>
</g>
<defs>
<clipPath id="clip0_218_1812">
<rect width="32.09" height="35" fill="white" transform="translate(0 0.600098)"/>
</clipPath>
</defs>
</svg>
