<svg width="18" height="19" viewBox="0 0 18 19" fill="none" xmlns="http://www.w3.org/2000/svg">
<path d="M4.965 9.0325C6.045 11.155 7.785 12.8875 9.9075 13.975L11.5575 12.325C11.76 12.1225 12.06 12.055 12.3225 12.145C13.1625 12.4225 14.07 12.5725 15 12.5725C15.4125 12.5725 15.75 12.91 15.75 13.3225V15.94C15.75 16.3525 15.4125 16.69 15 16.69C7.9575 16.69 2.25 10.9825 2.25 3.94C2.25 3.5275 2.5875 3.19 3 3.19H5.625C6.0375 3.19 6.375 3.5275 6.375 3.94C6.375 4.8775 6.525 5.7775 6.8025 6.6175C6.885 6.88 6.825 7.1725 6.615 7.3825L4.965 9.0325Z" fill="black" fill-opacity="0.6"/>
</svg>
