<svg width="50" height="51" viewBox="0 0 50 51" fill="none" xmlns="http://www.w3.org/2000/svg">
<g clip-path="url(#clip0_218_880)">
<path fill-rule="evenodd" clip-rule="evenodd" d="M42.6355 46.8356L37.8747 45.9811L35.5106 50.2088C33.7976 52.3328 32.7112 48.8416 32.231 47.6249L27.6371 38.958C28.695 38.5917 29.9727 37.5297 31.2992 36.3416C33.9156 36.3945 36.3529 35.9347 38.1473 33.656L43.4371 43.8611L43.8969 44.8377C44.2549 46.1113 44.0678 46.9536 42.6762 46.8356H42.6355ZM7.36529 46.8356L12.126 45.9811L14.5105 50.2088C16.2235 52.3328 17.3099 48.8416 17.7901 47.6249L22.3637 38.958C21.3057 38.5917 20.028 37.5297 18.7015 36.3416C16.0852 36.3945 13.6478 35.9347 11.8534 33.656L6.56369 43.8611L6.12424 44.8255C5.7621 46.0991 5.95334 46.9414 7.36529 46.8234V46.8356ZM34.6521 4.13537C34.9546 4.25061 35.2313 4.42489 35.4659 4.64806L37.7933 6.7965C38.0277 7.01667 38.2207 7.27715 38.363 7.56554C38.5053 7.86185 38.583 8.18502 38.5909 8.51362C38.6013 8.84234 38.5474 9.16994 38.4322 9.47797C38.3175 9.78467 38.1369 10.0625 37.9032 10.2918L37.594 10.6295C38.1041 11.5313 38.5135 12.4865 38.8147 13.4778H39.0385C39.3671 13.4627 39.6954 13.5154 40.0028 13.6324C40.3057 13.7489 40.5824 13.9246 40.8166 14.1492C41.0535 14.3675 41.2432 14.632 41.3741 14.9264C41.5075 15.2198 41.5835 15.5361 41.5979 15.8582L41.7159 19.0605C41.7337 19.3811 41.6866 19.702 41.5775 20.0041C41.4685 20.3061 41.2996 20.583 41.0811 20.8183C40.8593 21.0607 40.5908 21.2559 40.2917 21.392C39.9924 21.5233 39.6704 21.5952 39.3436 21.6036H38.8798C38.5992 22.5916 38.2131 23.5465 37.7282 24.4519L37.8951 24.5984L37.9398 24.6432C38.1714 24.8673 38.3554 25.1358 38.481 25.4326C38.6122 25.7262 38.6841 26.0429 38.6926 26.3644C38.7046 26.6825 38.6563 27.0001 38.5502 27.3002C38.4407 27.5992 38.2765 27.8752 38.066 28.114L38.0375 28.1425L35.8728 30.4659C35.6561 30.7102 35.3934 30.9093 35.0997 31.0519C34.7976 31.1941 34.4691 31.2717 34.1353 31.2797C33.8027 31.2887 33.4714 31.2349 33.1587 31.121C32.8526 31.0052 32.5751 30.8248 32.3449 30.5921L32.0072 30.2584C31.1185 30.7549 30.1785 31.1533 29.2037 31.4466V31.6785C29.2219 32.0064 29.1677 32.3342 29.045 32.6388C28.9339 32.9434 28.7591 33.2209 28.5323 33.4526C28.3148 33.6904 28.0501 33.8802 27.7551 34.01C27.4635 34.1454 27.1484 34.2227 26.8274 34.2379L23.6251 34.3518C23.2988 34.3733 22.9716 34.3277 22.6637 34.2179C22.3558 34.108 22.0736 33.9362 21.8347 33.713C21.5939 33.4897 21.399 33.2216 21.261 32.9236C21.1218 32.6256 21.0403 32.3039 21.0209 31.9755V31.5076C20.0327 31.2276 19.0777 30.8415 18.1726 30.3561L18.018 30.5229L17.9773 30.5677C17.7542 30.8005 17.4855 30.9848 17.1879 31.1088C16.5978 31.3666 15.9319 31.3914 15.3243 31.178C15.0261 31.0669 14.7504 30.9028 14.5105 30.6938L14.482 30.6653L12.1504 28.4721C11.9159 28.2489 11.723 27.9858 11.5808 27.6949C11.4418 27.3974 11.3643 27.075 11.3529 26.7469C11.3469 26.4198 11.4007 26.0943 11.5116 25.7866C11.6362 25.485 11.8156 25.2091 12.0406 24.9728L12.3702 24.6188C11.8759 23.7276 11.4776 22.7864 11.182 21.8111H10.9542C10.6263 21.8293 10.2984 21.7752 9.99387 21.6525C9.69028 21.5392 9.41326 21.3647 9.18006 21.1398C8.944 20.9207 8.75442 20.6564 8.62261 20.3626C8.49101 20.0685 8.41513 19.7525 8.39881 19.4308L8.28081 16.2285C8.26339 15.9033 8.30616 15.5778 8.40695 15.2682C8.52584 14.9674 8.6997 14.6915 8.91965 14.4544C9.14181 14.2092 9.41003 14.0101 9.70904 13.8684C10.009 13.7391 10.3306 13.6673 10.6571 13.6568H11.121C11.4032 12.6688 11.7906 11.7139 12.2766 10.8085L12.126 10.6458C11.88 10.4272 11.6843 10.1579 11.5523 9.85639C11.4123 9.55928 11.3347 9.2366 11.3244 8.90831C11.3094 8.58063 11.3635 8.25346 11.4831 7.94803C11.5993 7.64593 11.7735 7.36947 11.9958 7.13423L14.1443 4.79454C14.3636 4.55324 14.6257 4.35459 14.9174 4.20861C15.2146 4.06945 15.5374 3.99326 15.8654 3.98481C16.1922 3.97428 16.5179 4.02536 16.8257 4.13537C17.1324 4.25003 17.4102 4.4306 17.6395 4.66434L18.0017 4.998C18.8885 4.50343 19.8256 4.10511 20.7971 3.80984V3.5657C20.7802 3.23791 20.8343 2.91035 20.9558 2.60542C21.071 2.30284 21.2453 2.0262 21.4685 1.79162C21.684 1.55134 21.9473 1.3587 22.2416 1.22602C22.5335 1.09168 22.8484 1.01433 23.1693 0.998158L26.3676 0.880157C26.6951 0.867468 27.0221 0.91576 27.3319 1.02257C27.6375 1.13366 27.9152 1.31001 28.1457 1.53934C28.4003 1.75604 28.6068 2.02352 28.752 2.32466C28.8814 2.62461 28.9532 2.94623 28.9636 3.27273V3.7366C29.9514 4.01781 30.9062 4.40384 31.8119 4.88813L31.9543 4.73758C32.1733 4.49305 32.4426 4.29872 32.7437 4.16792C33.0404 4.02679 33.3633 3.94918 33.6918 3.94005C34.0191 3.92553 34.3459 3.97815 34.6521 4.09468V4.13537ZM21.3586 15.1217L23.6739 17.3027L28.3207 12.5582C28.7805 12.0903 29.0694 11.72 29.635 12.3019L31.4782 14.1858C32.0845 14.784 32.052 15.1339 31.4782 15.6914L24.7196 22.3279C23.4989 23.5079 23.7268 23.5812 22.5101 22.3727L18.254 18.1409C18.1985 18.0868 18.1555 18.0213 18.1278 17.949C18.1 17.8766 18.0883 17.7991 18.0933 17.7218C18.0983 17.6445 18.12 17.5692 18.1569 17.5011C18.1937 17.433 18.2449 17.3736 18.3069 17.3271L20.4431 15.1136C20.7686 14.7799 21.025 14.8002 21.3586 15.1136V15.1217ZM22.9455 7.39057C24.9682 6.98398 27.0659 7.18619 28.9737 7.97164C30.8814 8.75709 32.5134 10.0905 33.6634 11.8034C34.8134 13.5162 35.4298 15.5316 35.4346 17.5946C35.4394 19.6577 34.8324 21.6759 33.6903 23.3941C32.5483 25.1123 30.9225 26.4533 29.0185 27.2476C27.1144 28.0419 25.0176 28.2539 22.9931 27.8567C20.9686 27.4595 19.1073 26.471 17.6445 25.0161C16.1817 23.5613 15.1831 21.7054 14.775 19.6831C14.5043 18.3394 14.5009 16.9557 14.7651 15.6107C15.0292 14.2658 15.5557 12.9861 16.3144 11.8446C17.0731 10.7032 18.0492 9.72232 19.187 8.95809C20.3247 8.19386 21.6019 7.66122 22.9455 7.39057Z" fill="#04435E"/>
</g>
<defs>
<clipPath id="clip0_218_880">
<rect width="50" height="50" fill="white" transform="translate(0 0.880127)"/>
</clipPath>
</defs>
</svg>
