<svg width="50" height="51" viewBox="0 0 50 51" fill="none" xmlns="http://www.w3.org/2000/svg">
<path d="M14.5827 40.4635C12.291 40.4635 10.416 42.3385 10.416 44.6302H39.5827C39.5827 42.3385 37.7077 40.4635 35.416 40.4635H27.0827V36.2969H33.3327C35.6243 36.2969 37.4993 34.4219 37.4993 32.1302H20.8327C17.3743 32.1302 14.5827 29.3385 14.5827 25.8802C14.5827 23.6094 15.8118 21.6302 17.6452 20.526C18.4993 21.7552 19.8535 22.6094 21.4577 22.7344C22.916 22.8594 24.291 22.3385 25.3118 21.4427L26.541 24.7969L28.4993 24.0885L29.2077 26.0469L33.1243 24.6302L32.416 22.6719L34.3743 21.9635L28.666 6.29687L26.7077 7.00521L25.9993 5.04688L22.0827 6.46354L22.791 8.42187L20.8327 9.15104L21.9993 12.3802C19.5618 12.2969 17.4368 13.9427 16.8327 16.2552C13.0618 17.8385 10.416 21.5469 10.416 25.8802C10.416 31.6302 15.0827 36.2969 20.8327 36.2969V40.4635H14.5827ZM26.791 10.2969L30.3535 20.0885L28.3952 20.7969L24.8327 11.0052L26.791 10.2969ZM21.8743 15.4635C23.0202 15.4635 23.9577 16.401 23.9577 17.5469C23.9577 18.6927 23.0202 19.6302 21.8743 19.6302C20.7285 19.6302 19.791 18.6927 19.791 17.5469C19.791 16.401 20.7285 15.4635 21.8743 15.4635Z" fill="#04435E"/>
</svg>
