<svg width="35" height="36" viewBox="0 0 35 36" fill="none" xmlns="http://www.w3.org/2000/svg">
<path d="M9.65417 16.6155C11.7542 20.7426 15.1375 24.1114 19.2646 26.226L22.4729 23.0176C22.8667 22.6239 23.45 22.4926 23.9604 22.6676C25.5938 23.2072 27.3583 23.4989 29.1667 23.4989C29.9688 23.4989 30.625 24.1551 30.625 24.9572V30.0468C30.625 30.8489 29.9688 31.5051 29.1667 31.5051C15.4729 31.5051 4.375 20.4072 4.375 6.71346C4.375 5.91138 5.03125 5.25513 5.83333 5.25513H10.9375C11.7396 5.25513 12.3958 5.91138 12.3958 6.71346C12.3958 8.53638 12.6875 10.2864 13.2271 11.9197C13.3875 12.4301 13.2708 12.9989 12.8625 13.4072L9.65417 16.6155Z" fill="#04435E"/>
</svg>
