<svg width="76" height="76" viewBox="0 0 76 76" fill="none" xmlns="http://www.w3.org/2000/svg">
<rect x="0.5" y="0.320007" width="75" height="75" rx="37.5" fill="#04435E"/>
<path d="M29.5938 35.9294C31.8438 40.3513 35.4688 43.9606 39.8906 46.2263L43.3281 42.7888C43.75 42.3669 44.375 42.2263 44.9219 42.4138C46.6719 42.9919 48.5625 43.3044 50.5 43.3044C51.3594 43.3044 52.0625 44.0075 52.0625 44.8669V50.32C52.0625 51.1794 51.3594 51.8825 50.5 51.8825C35.8281 51.8825 23.9375 39.9919 23.9375 25.32C23.9375 24.4606 24.6406 23.7575 25.5 23.7575H30.9688C31.8281 23.7575 32.5312 24.4606 32.5312 25.32C32.5312 27.2731 32.8437 29.1481 33.4219 30.8981C33.5937 31.445 33.4688 32.0544 33.0312 32.4919L29.5938 35.9294Z" fill="white"/>
</svg>
